<?xml version="1.0" encoding="UTF-8"?>
<svg width="512px" height="512px" viewBox="0 0 512 512" version="1.1" xmlns="http://www.w3.org/2000/svg" xmlns:xlink="http://www.w3.org/1999/xlink">
    <title>APT组织画像-肚脑虫</title>
    <defs>
        <radialGradient cx="50%" cy="50%" fx="50%" fy="50%" r="60.9457242%" gradientTransform="translate(0.500000,0.500000),scale(0.455026,1.000000),rotate(130.472021),translate(-0.500000,-0.500000)" id="radialGradient-1">
            <stop stop-color="#87004F" offset="0%"></stop>
            <stop stop-color="#522C58" offset="100%"></stop>
        </radialGradient>
        <linearGradient x1="10.7567094%" y1="61.5657956%" x2="90.7656488%" y2="37.0686741%" id="linearGradient-2">
            <stop stop-color="#FFE7F5" offset="0%"></stop>
            <stop stop-color="#FF44B1" offset="100%"></stop>
        </linearGradient>
        <path d="M190,103.948417 C182.816019,114.842308 172.274079,120.61632 158.374179,121.270455 C137.807762,122.238318 121.812385,118.151593 110.388047,109.010281 C92.2837584,99.1181783 77.465715,98.3880853 65.9339167,106.820002 C48.6362193,119.467877 47.475555,141.20917 56.7758822,155.833885 C66.0762094,170.4586 77.6337485,177.684718 87.246525,182" id="path-3"></path>
        <filter x="-14.4%" y="-24.7%" width="131.9%" height="176.0%" filterUnits="objectBoundingBox" id="filter-4">
            <feMorphology radius="11" operator="dilate" in="SourceAlpha" result="shadowSpreadOuter1"></feMorphology>
            <feOffset dx="0" dy="18" in="shadowSpreadOuter1" result="shadowOffsetOuter1"></feOffset>
            <feMorphology radius="11" operator="erode" in="SourceAlpha" result="shadowInner"></feMorphology>
            <feOffset dx="0" dy="18" in="shadowInner" result="shadowInner"></feOffset>
            <feComposite in="shadowOffsetOuter1" in2="shadowInner" operator="out" result="shadowOffsetOuter1"></feComposite>
            <feColorMatrix values="0 0 0 0 0   0 0 0 0 0   0 0 0 0 0  0 0 0 0.3 0" type="matrix" in="shadowOffsetOuter1"></feColorMatrix>
        </filter>
    </defs>
    <g id="APT组织画像-肚脑虫" stroke="none" stroke-width="1" fill="none" fill-rule="evenodd">
        <g id="分组" transform="translate(-99.000000, -100.000000)">
            <path d="M237.239147,113.020916 C247.168721,108.182431 259.140598,112.309573 263.979084,122.239147 C268.817569,132.168721 264.690427,144.140598 254.760853,148.979084 C207.714445,171.903872 169.594801,210.344862 147.051902,257.609809 C142.296836,267.5796 130.359981,271.806969 120.390191,267.051902 C110.4204,262.296836 106.193031,250.359981 110.948098,240.390191 C137.38687,184.956893 182.057206,139.909989 237.239147,113.020916 Z M109.960999,472.636807 C105.191022,462.674142 109.400528,450.730976 119.363193,445.960999 C129.325858,441.191022 141.269024,445.400528 146.039001,455.363193 C168.697085,502.687301 207.163735,541.150402 254.661874,563.973022 C264.617899,568.756842 268.810799,580.705848 264.026978,590.661874 C259.243158,600.617899 247.294152,604.810799 237.338126,600.026978 C181.642768,573.265635 136.55544,528.182466 109.960999,472.636807 Z M470.513282,602.097625 C460.51824,606.799381 448.604131,602.508324 443.902375,592.513282 C439.200619,582.51824 443.491676,570.604131 453.486718,565.902375 C501.856859,543.148634 541.059521,503.943835 563.909311,455.471989 C568.619201,445.480777 580.536799,441.199421 590.528011,445.909311 C600.519223,450.619201 604.800579,462.536799 600.090689,472.528011 C573.277789,529.406904 527.30481,575.38239 470.513282,602.097625 Z M599.002372,239.287101 C603.814373,249.229537 599.655334,261.190371 589.712899,266.002372 C579.770463,270.814373 567.809629,266.655334 562.997628,256.712899 C539.976261,209.146728 501.170968,170.66182 453.445439,148.078149 C443.461153,143.353596 439.197297,131.429725 443.921851,121.445439 C448.646404,111.461153 460.570275,107.197297 470.554561,111.921851 C526.534476,138.411488 572.005733,183.507324 599.002372,239.287101 Z" id="Stroke-13" fill="#522C58" fill-rule="nonzero"></path>
            <path d="M355,612 C496.385,612 611,497.385 611,356 C611,214.615 496.385,100 355,100 C213.615,100 99,214.615 99,356 C99,497.385 213.615,612 355,612" id="Fill-1-Copy" fill="#522C58" transform="translate(355.000000, 356.000000) scale(1, -1) translate(-355.000000, -356.000000) "></path>
            <path d="M355,561 C468.218457,561 560,469.218457 560,356 C560,242.781543 468.218457,151 355,151 C241.781543,151 150,242.781543 150,356 C150,469.218457 241.781543,561 355,561" id="Fill-1-Copy-3" fill="#6C1D79" transform="translate(355.000000, 356.000000) scale(1, -1) translate(-355.000000, -356.000000) "></path>
            <path d="M161.373324,220.039083 C134.665478,258.285081 119,304.81309 119,355 C119,405.510232 134.867974,452.314267 161.890881,490.699068 M217.433392,546.7808 C256.163151,574.611289 303.667665,591 355,591 C405.252684,591 451.836871,575.293433 490.111249,548.521611 M546.699649,492.679471 C574.579428,453.929155 591,406.382209 591,355 C591,303.76812 574.67537,256.349094 546.944058,217.66087 M490.006085,161.404873 C451.751554,134.677815 405.206668,119 355,119 C303.648668,119 256.127992,135.400843 217.390398,163.250102" id="形状" stroke="#8F459B" stroke-width="3"></path>
            <g transform="translate(355.000000, 355.004728) rotate(-315.000000) translate(-355.000000, -355.004728) translate(104.000000, 104.004728)">
                <polygon id="Fill-5" fill="#FF5ABA" points="251.1489 40.8578644 270.1489 0.857864376 251.1489 13.3578644 232.1489 0.857864376"></polygon>
                <polygon id="Fill-7" fill="#FF5ABA" points="251.1489 461.142136 270.1489 501.142136 251.1489 488.642136 232.1489 501.142136"></polygon>
                <polygon id="Fill-9" fill="#FF5ABA" points="461.142136 251 501.142136 270 488.642136 251 501.142136 232"></polygon>
                <polygon id="Fill-11" fill="#FF5ABA" points="40.8578644 251 0.857864376 270 13.3578644 251 0.857864376 232"></polygon>
                <g id="分组-2" transform="translate(13.000000, 13.000000)" opacity="0.600000024" stroke="#8F459B" stroke-width="3">
                    <path d="M465.449968,204.710995 C465.997968,207.523995 468.720968,209.361995 471.533968,208.815995 C474.346968,208.270995 476.182968,205.546995 475.635968,202.733995 C475.087968,199.920995 472.363968,198.082995 469.550968,198.628995 C466.737968,199.174995 464.901968,201.897995 465.449968,204.710995 Z" id="Stroke-15"></path>
                    <path d="M464.742861,274.050925 C464.194861,276.863925 466.030861,279.586925 468.843861,280.132925 C471.656861,280.678925 474.380861,278.840925 474.928861,276.027925 C475.475861,273.213925 473.639861,270.490925 470.826861,269.945925 C468.013861,269.399925 465.290861,271.237925 464.742861,274.050925 Z" id="Stroke-17"></path>
                    <path d="M271.108085,466.036975 C268.295085,466.583975 266.457085,469.307975 267.003085,472.120975 C267.548085,474.933975 270.271085,476.769975 273.085085,476.222975 C275.898085,475.674975 277.736085,472.950975 277.190085,470.137975 C276.644085,467.324975 273.921085,465.488975 271.108085,466.036975 Z" id="Stroke-19"></path>
                    <path d="M201.672175,464.621761 C198.859175,464.073761 196.136175,465.910761 195.590175,468.723761 C195.044175,471.536761 196.882175,474.260761 199.695175,474.808761 C202.508175,475.355761 205.232175,473.519761 205.777175,470.706761 C206.323175,467.893761 204.485175,465.169761 201.672175,464.621761 Z" id="Stroke-21"></path>
                    <path d="M11.8727322,273.785219 C11.3247322,270.972219 8.60073219,269.134219 5.78773219,269.680219 C2.97573219,270.225219 1.13873219,272.948219 1.68673219,275.762219 C2.23473219,278.575219 4.95873219,280.413219 7.77073219,279.867219 C10.5837322,279.321219 12.4197322,276.598219 11.8727322,273.785219 Z" id="Stroke-23"></path>
                    <path d="M11.1656254,204.380502 C11.7126254,201.567502 9.87662541,198.843502 7.06362541,198.297502 C4.25162541,197.752502 1.52762541,199.590502 0.979625407,202.403502 C0.431625407,205.216502 2.26862541,207.940502 5.08062541,208.485502 C7.89362541,209.031502 10.6176254,207.193502 11.1656254,204.380502 Z" id="Stroke-25"></path>
                    <path d="M201.598368,11.7526322 C204.411368,11.2046322 206.249368,8.48063219 205.703368,5.66763219 C205.157368,2.85463219 202.434368,1.01863219 199.621368,1.56563219 C196.808368,2.11363219 194.970368,4.83763219 195.516368,7.65063219 C196.062368,10.4636322 198.785368,12.3006322 201.598368,11.7526322 Z" id="Stroke-27"></path>
                    <path d="M273.227505,10.3384186 C276.040505,9.79041863 277.878505,7.06641863 277.332505,4.25341863 C276.787505,1.44041863 274.063505,-0.395581374 271.250505,0.151418626 C268.437505,0.699418626 266.599505,3.42341863 267.145505,6.23641863 C267.691505,9.04941863 270.414505,10.8864186 273.227505,10.3384186 Z" id="Stroke-29"></path>
                </g>
            </g>
            <path d="M354,561 C467.218457,561 559,469.218457 559,356 C559,242.781543 467.218457,151 354,151 C240.781543,151 149,242.781543 149,356 C149,469.218457 240.781543,561 354,561" id="Fill-1-Copy-2" stroke="#02FFA7" stroke-width="6"></path>
            <g id="分组-3" transform="translate(132.000000, 134.000000)">
                <polygon id="矩形" fill="#02FFA7" points="219 1.63064007e-16 225 1.63064007e-16 225 47 219 47"></polygon>
                <polygon id="矩形" fill="#FFFFFF" opacity="0.5" transform="translate(240.909427, 30.009363) rotate(6.000000) translate(-240.909427, -30.009363) " points="239.899377 21.9289606 241.919478 21.9289606 241.919478 38.0897646 239.899377 38.0897646"></polygon>
                <polygon id="矩形" fill="#FFFFFF" opacity="0.5" transform="translate(259.636746, 32.787298) rotate(11.000000) translate(-259.636746, -32.787298) " points="258.626696 24.706896 260.646797 24.706896 260.646797 40.8677 258.626696 40.8677"></polygon>
                <polygon id="矩形" fill="#FFFFFF" opacity="0.5" transform="translate(278.001603, 37.387455) rotate(17.000000) translate(-278.001603, -37.387455) " points="276.991553 29.3070531 279.011653 29.3070531 279.011653 45.4678571 276.991553 45.4678571"></polygon>
                <polygon id="矩形" fill="#FFFFFF" opacity="0.5" transform="translate(295.827134, 43.765532) rotate(23.000000) translate(-295.827134, -43.765532) " points="294.817084 35.68513 296.837184 35.68513 296.837184 51.845934 294.817084 51.845934"></polygon>
                <polygon id="矩形" fill="#FFFFFF" opacity="0.5" transform="translate(312.941669, 51.860104) rotate(28.000000) translate(-312.941669, -51.860104) " points="311.931619 43.7797022 313.951719 43.7797022 313.951719 59.9405062 311.931619 59.9405062"></polygon>
                <polygon id="矩形" fill="#FFFFFF" opacity="0.5" transform="translate(329.180386, 61.593217) rotate(34.000000) translate(-329.180386, -61.593217) " points="328.170336 53.5128146 330.190436 53.5128146 330.190436 69.6736187 328.170336 69.6736187"></polygon>
                <polygon id="矩形" fill="#FFFFFF" opacity="0.5" transform="translate(344.386897, 72.871134) rotate(39.000000) translate(-344.386897, -72.871134) " points="343.376847 64.7907321 345.396948 64.7907321 345.396948 80.9515361 343.376847 80.9515361"></polygon>
                <polygon id="矩形" fill="#FFFFFF" opacity="0.5" transform="translate(358.414756, 85.585244) rotate(45.000000) translate(-358.414756, -85.585244) " points="357.404706 77.504842 359.424806 77.504842 359.424806 93.665646 357.404706 93.665646"></polygon>
                <polygon id="矩形" fill="#FFFFFF" opacity="0.5" transform="translate(371.128866, 99.613103) rotate(51.000000) translate(-371.128866, -99.613103) " points="370.118816 91.5327006 372.138916 91.5327006 372.138916 107.693505 370.118816 107.693505"></polygon>
                <polygon id="矩形" fill="#FFFFFF" opacity="0.5" transform="translate(382.406783, 114.819614) rotate(56.000000) translate(-382.406783, -114.819614) " points="381.396733 106.739212 383.416834 106.739212 383.416834 122.900016 381.396733 122.900016"></polygon>
                <polygon id="矩形" fill="#FFFFFF" opacity="0.5" transform="translate(392.139896, 131.058331) rotate(62.000000) translate(-392.139896, -131.058331) " points="391.129846 122.977929 393.149946 122.977929 393.149946 139.138733 391.129846 139.138733"></polygon>
                <polygon id="矩形" fill="#FFFFFF" opacity="0.5" transform="translate(400.234468, 148.172866) rotate(68.000000) translate(-400.234468, -148.172866) " points="399.224418 140.092464 401.244518 140.092464 401.244518 156.253268 399.224418 156.253268"></polygon>
                <polygon id="矩形" fill="#FFFFFF" opacity="0.5" transform="translate(406.612545, 165.998397) rotate(73.000000) translate(-406.612545, -165.998397) " points="405.602495 157.917995 407.622595 157.917995 407.622595 174.078799 405.602495 174.078799"></polygon>
                <polygon id="矩形" fill="#FFFFFF" opacity="0.5" transform="translate(411.212702, 184.363254) rotate(79.000000) translate(-411.212702, -184.363254) " points="410.202652 176.282851 412.222752 176.282851 412.222752 192.443656 410.202652 192.443656"></polygon>
                <polygon id="矩形" fill="#FFFFFF" opacity="0.5" transform="translate(413.990637, 203.090573) rotate(84.000000) translate(-413.990637, -203.090573) " points="412.980587 195.010171 415.000688 195.010171 415.000688 211.170975 412.980587 211.170975"></polygon>
                <polygon id="矩形" fill="#02FFA7" transform="translate(420.500000, 222.000000) rotate(90.000000) translate(-420.500000, -222.000000) " points="417.5 198.5 423.5 198.5 423.5 245.5 417.5 245.5"></polygon>
                <polygon id="矩形" fill="#FFFFFF" opacity="0.5" transform="translate(413.990637, 240.909427) rotate(96.000000) translate(-413.990637, -240.909427) " points="412.980587 232.829025 415.000688 232.829025 415.000688 248.989829 412.980587 248.989829"></polygon>
                <polygon id="矩形" fill="#FFFFFF" opacity="0.5" transform="translate(411.212702, 259.636746) rotate(101.000000) translate(-411.212702, -259.636746) " points="410.202652 251.556344 412.222752 251.556344 412.222752 267.717149 410.202652 267.717149"></polygon>
                <polygon id="矩形" fill="#FFFFFF" opacity="0.5" transform="translate(406.612545, 278.001603) rotate(107.000000) translate(-406.612545, -278.001603) " points="405.602495 269.921201 407.622595 269.921201 407.622595 286.082005 405.602495 286.082005"></polygon>
                <polygon id="矩形" fill="#FFFFFF" opacity="0.5" transform="translate(400.234468, 295.827134) rotate(113.000000) translate(-400.234468, -295.827134) " points="399.224418 287.746732 401.244518 287.746732 401.244518 303.907536 399.224418 303.907536"></polygon>
                <polygon id="矩形" fill="#FFFFFF" opacity="0.5" transform="translate(392.139896, 312.941669) rotate(118.000000) translate(-392.139896, -312.941669) " points="391.129846 304.861267 393.149946 304.861267 393.149946 321.022071 391.129846 321.022071"></polygon>
                <polygon id="矩形" fill="#FFFFFF" opacity="0.5" transform="translate(382.406783, 329.180386) rotate(124.000000) translate(-382.406783, -329.180386) " points="381.396733 321.099984 383.416834 321.099984 383.416834 337.260788 381.396733 337.260788"></polygon>
                <polygon id="矩形" fill="#FFFFFF" opacity="0.5" transform="translate(371.128866, 344.386897) rotate(129.000000) translate(-371.128866, -344.386897) " points="370.118816 336.306495 372.138916 336.306495 372.138916 352.467299 370.118816 352.467299"></polygon>
                <polygon id="矩形" fill="#FFFFFF" opacity="0.5" transform="translate(358.414756, 358.414756) rotate(135.000000) translate(-358.414756, -358.414756) " points="357.404706 350.334354 359.424806 350.334354 359.424806 366.495158 357.404706 366.495158"></polygon>
                <polygon id="矩形" fill="#FFFFFF" opacity="0.5" transform="translate(344.386897, 371.128866) rotate(141.000000) translate(-344.386897, -371.128866) " points="343.376847 363.048464 345.396948 363.048464 345.396948 379.209268 343.376847 379.209268"></polygon>
                <polygon id="矩形" fill="#FFFFFF" opacity="0.5" transform="translate(329.180386, 382.406783) rotate(146.000000) translate(-329.180386, -382.406783) " points="328.170336 374.326381 330.190436 374.326381 330.190436 390.487185 328.170336 390.487185"></polygon>
                <polygon id="矩形" fill="#FFFFFF" opacity="0.5" transform="translate(312.941669, 392.139896) rotate(152.000000) translate(-312.941669, -392.139896) " points="311.931619 384.059494 313.951719 384.059494 313.951719 400.220298 311.931619 400.220298"></polygon>
                <polygon id="矩形" fill="#FFFFFF" opacity="0.5" transform="translate(295.827134, 400.234468) rotate(158.000000) translate(-295.827134, -400.234468) " points="294.817084 392.154066 296.837184 392.154066 296.837184 408.31487 294.817084 408.31487"></polygon>
                <polygon id="矩形" fill="#FFFFFF" opacity="0.5" transform="translate(278.001603, 406.612545) rotate(163.000000) translate(-278.001603, -406.612545) " points="276.991553 398.532143 279.011653 398.532143 279.011653 414.692947 276.991553 414.692947"></polygon>
                <polygon id="矩形" fill="#FFFFFF" opacity="0.5" transform="translate(259.636746, 411.212702) rotate(169.000000) translate(-259.636746, -411.212702) " points="258.626696 403.1323 260.646797 403.1323 260.646797 419.293104 258.626696 419.293104"></polygon>
                <polygon id="矩形" fill="#FFFFFF" opacity="0.5" transform="translate(240.909427, 413.990637) rotate(174.000000) translate(-240.909427, -413.990637) " points="239.899377 405.910235 241.919478 405.910235 241.919478 422.071039 239.899377 422.071039"></polygon>
                <polygon id="矩形" fill="#02FFA7" transform="translate(222.000000, 420.500000) rotate(180.000000) translate(-222.000000, -420.500000) " points="219 397 225 397 225 444 219 444"></polygon>
                <polygon id="矩形" fill="#FFFFFF" opacity="0.5" transform="translate(203.090573, 413.990637) rotate(186.000000) translate(-203.090573, -413.990637) " points="202.080522 405.910235 204.100623 405.910235 204.100623 422.071039 202.080522 422.071039"></polygon>
                <polygon id="矩形" fill="#FFFFFF" opacity="0.5" transform="translate(184.363254, 411.212702) rotate(191.000000) translate(-184.363254, -411.212702) " points="183.353203 403.1323 185.373304 403.1323 185.373304 419.293104 183.353203 419.293104"></polygon>
                <polygon id="矩形" fill="#FFFFFF" opacity="0.5" transform="translate(165.998397, 406.612545) rotate(197.000000) translate(-165.998397, -406.612545) " points="164.988347 398.532143 167.008447 398.532143 167.008447 414.692947 164.988347 414.692947"></polygon>
                <polygon id="矩形" fill="#FFFFFF" opacity="0.5" transform="translate(148.172866, 400.234468) rotate(203.000000) translate(-148.172866, -400.234468) " points="147.162816 392.154066 149.182916 392.154066 149.182916 408.31487 147.162816 408.31487"></polygon>
                <polygon id="矩形" fill="#FFFFFF" opacity="0.5" transform="translate(131.058331, 392.139896) rotate(208.000000) translate(-131.058331, -392.139896) " points="130.048281 384.059494 132.068381 384.059494 132.068381 400.220298 130.048281 400.220298"></polygon>
                <polygon id="矩形" fill="#FFFFFF" opacity="0.5" transform="translate(114.819614, 382.406783) rotate(214.000000) translate(-114.819614, -382.406783) " points="113.809564 374.326381 115.829664 374.326381 115.829664 390.487185 113.809564 390.487185"></polygon>
                <polygon id="矩形" fill="#FFFFFF" opacity="0.5" transform="translate(99.613103, 371.128866) rotate(219.000000) translate(-99.613103, -371.128866) " points="98.6030524 363.048464 100.623153 363.048464 100.623153 379.209268 98.6030524 379.209268"></polygon>
                <polygon id="矩形" fill="#FFFFFF" opacity="0.5" transform="translate(85.585244, 358.414756) rotate(225.000000) translate(-85.585244, -358.414756) " points="84.5751938 350.334354 86.5952943 350.334354 86.5952943 366.495158 84.5751938 366.495158"></polygon>
                <polygon id="矩形" fill="#FFFFFF" opacity="0.5" transform="translate(72.871134, 344.386897) rotate(231.000000) translate(-72.871134, -344.386897) " points="71.8610838 336.306495 73.8811843 336.306495 73.8811843 352.467299 71.8610838 352.467299"></polygon>
                <polygon id="矩形" fill="#FFFFFF" opacity="0.5" transform="translate(61.593217, 329.180386) rotate(236.000000) translate(-61.593217, -329.180386) " points="60.5831664 321.099984 62.6032669 321.099984 62.6032669 337.260788 60.5831664 337.260788"></polygon>
                <polygon id="矩形" fill="#FFFFFF" opacity="0.5" transform="translate(51.860104, 312.941669) rotate(242.000000) translate(-51.860104, -312.941669) " points="50.850054 304.861267 52.8701545 304.861267 52.8701545 321.022071 50.850054 321.022071"></polygon>
                <polygon id="矩形" fill="#FFFFFF" opacity="0.5" transform="translate(43.765532, 295.827134) rotate(247.000000) translate(-43.765532, -295.827134) " points="42.7554817 287.746732 44.7755822 287.746732 44.7755822 303.907536 42.7554817 303.907536"></polygon>
                <polygon id="矩形" fill="#FFFFFF" opacity="0.5" transform="translate(37.387455, 278.001603) rotate(253.000000) translate(-37.387455, -278.001603) " points="36.3774049 269.921201 38.3975054 269.921201 38.3975054 286.082005 36.3774049 286.082005"></polygon>
                <polygon id="矩形" fill="#FFFFFF" opacity="0.5" transform="translate(32.787298, 259.636746) rotate(259.000000) translate(-32.787298, -259.636746) " points="31.7772477 251.556344 33.7973482 251.556344 33.7973482 267.717149 31.7772477 267.717149"></polygon>
                <polygon id="矩形" fill="#FFFFFF" opacity="0.5" transform="translate(30.009363, 240.909427) rotate(264.000000) translate(-30.009363, -240.909427) " points="28.9993124 232.829025 31.0194129 232.829025 31.0194129 248.989829 28.9993124 248.989829"></polygon>
                <polygon id="矩形" fill="#02FFA7" transform="translate(23.500000, 222.000000) rotate(270.000000) translate(-23.500000, -222.000000) " points="20.5 198.5 26.5 198.5 26.5 245.5 20.5 245.5"></polygon>
                <polygon id="矩形" fill="#FFFFFF" opacity="0.5" transform="translate(30.009363, 203.090573) rotate(276.000000) translate(-30.009363, -203.090573) " points="28.9993124 195.010171 31.0194129 195.010171 31.0194129 211.170975 28.9993124 211.170975"></polygon>
                <polygon id="矩形" fill="#FFFFFF" opacity="0.5" transform="translate(32.787298, 184.363254) rotate(281.000000) translate(-32.787298, -184.363254) " points="31.7772477 176.282851 33.7973482 176.282851 33.7973482 192.443656 31.7772477 192.443656"></polygon>
                <polygon id="矩形" fill="#FFFFFF" opacity="0.5" transform="translate(37.387455, 165.998397) rotate(287.000000) translate(-37.387455, -165.998397) " points="36.3774049 157.917995 38.3975054 157.917995 38.3975054 174.078799 36.3774049 174.078799"></polygon>
                <polygon id="矩形" fill="#FFFFFF" opacity="0.5" transform="translate(43.765532, 148.172866) rotate(293.000000) translate(-43.765532, -148.172866) " points="42.7554817 140.092464 44.7755822 140.092464 44.7755822 156.253268 42.7554817 156.253268"></polygon>
                <polygon id="矩形" fill="#FFFFFF" opacity="0.5" transform="translate(51.860104, 131.058331) rotate(298.000000) translate(-51.860104, -131.058331) " points="50.850054 122.977929 52.8701545 122.977929 52.8701545 139.138733 50.850054 139.138733"></polygon>
                <polygon id="矩形" fill="#FFFFFF" opacity="0.5" transform="translate(61.593217, 114.819614) rotate(304.000000) translate(-61.593217, -114.819614) " points="60.5831664 106.739212 62.6032669 106.739212 62.6032669 122.900016 60.5831664 122.900016"></polygon>
                <polygon id="矩形" fill="#FFFFFF" opacity="0.5" transform="translate(72.871134, 99.613103) rotate(309.000000) translate(-72.871134, -99.613103) " points="71.8610838 91.5327006 73.8811843 91.5327006 73.8811843 107.693505 71.8610838 107.693505"></polygon>
                <polygon id="矩形" fill="#FFFFFF" opacity="0.5" transform="translate(85.585244, 85.585244) rotate(315.000000) translate(-85.585244, -85.585244) " points="84.5751938 77.504842 86.5952943 77.504842 86.5952943 93.665646 84.5751938 93.665646"></polygon>
                <polygon id="矩形" fill="#FFFFFF" opacity="0.5" transform="translate(99.613103, 72.871134) rotate(321.000000) translate(-99.613103, -72.871134) " points="98.6030524 64.7907321 100.623153 64.7907321 100.623153 80.9515361 98.6030524 80.9515361"></polygon>
                <polygon id="矩形" fill="#FFFFFF" opacity="0.5" transform="translate(114.819614, 61.593217) rotate(326.000000) translate(-114.819614, -61.593217) " points="113.809564 53.5128146 115.829664 53.5128146 115.829664 69.6736187 113.809564 69.6736187"></polygon>
                <polygon id="矩形" fill="#FFFFFF" opacity="0.5" transform="translate(131.058331, 51.860104) rotate(332.000000) translate(-131.058331, -51.860104) " points="130.048281 43.7797022 132.068381 43.7797022 132.068381 59.9405062 130.048281 59.9405062"></polygon>
                <polygon id="矩形" fill="#FFFFFF" opacity="0.5" transform="translate(148.172866, 43.765532) rotate(338.000000) translate(-148.172866, -43.765532) " points="147.162816 35.68513 149.182916 35.68513 149.182916 51.845934 147.162816 51.845934"></polygon>
                <polygon id="矩形" fill="#FFFFFF" opacity="0.5" transform="translate(165.998397, 37.387455) rotate(343.000000) translate(-165.998397, -37.387455) " points="164.988347 29.3070531 167.008447 29.3070531 167.008447 45.4678571 164.988347 45.4678571"></polygon>
                <polygon id="矩形" fill="#FFFFFF" opacity="0.5" transform="translate(184.363254, 32.787298) rotate(349.000000) translate(-184.363254, -32.787298) " points="183.353203 24.706896 185.373304 24.706896 185.373304 40.8677 183.353203 40.8677"></polygon>
                <polygon id="矩形" fill="#FFFFFF" opacity="0.5" transform="translate(203.090573, 30.009363) rotate(354.000000) translate(-203.090573, -30.009363) " points="202.080522 21.9289606 204.100623 21.9289606 204.100623 38.0897646 202.080522 38.0897646"></polygon>
            </g>
            <path d="M348.638113,511.477301 L343.258886,522.189131 C341.771797,525.150419 338.165674,526.345494 335.204386,524.858405 C333.68737,524.096596 332.564052,522.727829 332.112836,521.09134 L328.926744,509.535901 C328.045947,506.341396 324.742263,504.465764 321.547758,505.34656 C320.303121,505.689735 319.202377,506.425228 318.409023,507.443796 L311.043382,516.900366 C309.007149,519.514637 305.237169,519.98323 302.622898,517.946996 C301.283652,516.903869 300.448952,515.342255 300.325669,513.649183 L299.455151,501.694202 C299.214496,498.389244 296.340208,495.905135 293.03525,496.14579 C291.747578,496.239553 290.524497,496.74617 289.547675,497.590391 L280.478678,505.42829 C277.971551,507.59508 274.182592,507.319182 272.015803,504.812054 C270.905794,503.527697 270.391788,501.833247 270.601176,500.148655 L272.079686,488.253556 C272.488421,484.965153 270.153987,481.96803 266.865583,481.559295 C265.584362,481.400045 264.285945,481.658316 263.163193,482.295746 L252.739356,488.213769 C249.857683,489.849808 246.195354,488.840022 244.559314,485.958349 C243.7212,484.482119 243.547642,482.719949 244.081653,481.108576 L247.852373,469.730481 C248.89479,466.585003 247.189922,463.190044 244.044444,462.147627 C242.818908,461.741483 241.495054,461.741483 240.269519,462.147627 L228.891424,465.918347 C225.745946,466.960763 222.350987,465.255895 221.30857,462.110417 C220.774559,460.499044 220.948117,458.736874 221.786231,457.260644 L227.704254,446.836807 C229.340293,443.955134 228.330507,440.292804 225.448834,438.656765 C224.326082,438.019335 223.027665,437.761064 221.746444,437.920314 L209.851345,439.398824 C206.562941,439.807559 203.565818,437.473125 203.157083,434.184722 C202.947696,432.50013 203.461702,430.805679 204.57171,429.521322 L212.409609,420.452325 C214.576399,417.945198 214.300501,414.15624 211.793374,411.98945 C210.816551,411.14523 209.59347,410.638613 208.305798,410.544849 L196.350817,409.674331 C193.045859,409.433677 190.56175,406.559389 190.802405,403.254431 C190.925689,401.561359 191.760389,399.999744 193.099634,398.956618 L202.556204,391.590977 C205.170476,389.554743 205.639068,385.784764 203.602834,383.170492 C202.809481,382.151924 201.708736,381.416431 200.464099,381.073256 L188.90866,377.887164 C185.714155,377.006368 183.838523,373.702684 184.719319,370.508179 C185.170536,368.87169 186.293853,367.502924 187.810869,366.741114 L198.522699,361.361887 C201.483987,359.874799 202.679062,356.268676 201.191974,353.307387 C200.612577,352.153615 199.676471,351.217509 198.522699,350.638113 L187.810869,345.258886 C184.849581,343.771797 183.654506,340.165674 185.141595,337.204386 C185.903404,335.68737 187.272171,334.564052 188.90866,334.112836 L200.464099,330.926744 C203.658604,330.045947 205.534236,326.742263 204.65344,323.547758 C204.310265,322.303121 203.574772,321.202377 202.556204,320.409023 L193.099634,313.043382 C190.485363,311.007149 190.01677,307.237169 192.053004,304.622898 C193.096131,303.283652 194.657745,302.448952 196.350817,302.325669 L208.305798,301.455151 C211.610756,301.214496 214.094865,298.340208 213.85421,295.03525 C213.760447,293.747578 213.25383,292.524497 212.409609,291.547675 L204.57171,282.478678 C202.40492,279.971551 202.680818,276.182592 205.187946,274.015803 C206.472303,272.905794 208.166753,272.391788 209.851345,272.601176 L221.746444,274.079686 C225.034847,274.488421 228.03197,272.153987 228.440705,268.865583 C228.599955,267.584362 228.341684,266.285945 227.704254,265.163193 L221.786231,254.739356 C220.150192,251.857683 221.159978,248.195354 224.041651,246.559314 C225.517881,245.7212 227.280051,245.547642 228.891424,246.081653 L240.269519,249.852373 C243.414997,250.89479 246.809956,249.189922 247.852373,246.044444 C248.258517,244.818908 248.258517,243.495054 247.852373,242.269519 L244.081653,230.891424 C243.039237,227.745946 244.744105,224.350987 247.889583,223.30857 C249.500956,222.774559 251.263126,222.948117 252.739356,223.786231 L263.163193,229.704254 C266.044866,231.340293 269.707196,230.330507 271.343235,227.448834 C271.980665,226.326082 272.238936,225.027665 272.079686,223.746444 L270.601176,211.851345 C270.192441,208.562941 272.526875,205.565818 275.815278,205.157083 C277.49987,204.947696 279.194321,205.461702 280.478678,206.57171 L289.547675,214.409609 C292.054802,216.576399 295.84376,216.300501 298.01055,213.793374 C298.85477,212.816551 299.361387,211.59347 299.455151,210.305798 L300.325669,198.350817 C300.566323,195.045859 303.440611,192.56175 306.745569,192.802405 C308.438641,192.925689 310.000256,193.760389 311.043382,195.099634 L318.409023,204.556204 C320.445257,207.170476 324.215236,207.639068 326.829508,205.602834 C327.848076,204.809481 328.583569,203.708736 328.926744,202.464099 L332.112836,190.90866 C332.993632,187.714155 336.297316,185.838523 339.491821,186.719319 C341.12831,187.170536 342.497076,188.293853 343.258886,189.810869 L348.638113,200.522699 C350.125201,203.483987 353.731324,204.679062 356.692613,203.191974 C357.846385,202.612577 358.782491,201.676471 359.361887,200.522699 L364.741114,189.810869 C366.228203,186.849581 369.834326,185.654506 372.795614,187.141595 C374.31263,187.903404 375.435948,189.272171 375.887164,190.90866 L379.073256,202.464099 C379.954053,205.658604 383.257737,207.534236 386.452242,206.65344 C387.696879,206.310265 388.797623,205.574772 389.590977,204.556204 L396.956618,195.099634 C398.992851,192.485363 402.762831,192.01677 405.377102,194.053004 C406.716348,195.096131 407.551048,196.657745 407.674331,198.350817 L408.544849,210.305798 C408.785504,213.610756 411.659792,216.094865 414.96475,215.85421 C416.252422,215.760447 417.475503,215.25383 418.452325,214.409609 L427.521322,206.57171 C430.028449,204.40492 433.817408,204.680818 435.984197,207.187946 C437.094206,208.472303 437.608212,210.166753 437.398824,211.851345 L435.920314,223.746444 C435.511579,227.034847 437.846013,230.03197 441.134417,230.440705 C442.415638,230.599955 443.714055,230.341684 444.836807,229.704254 L455.260644,223.786231 C458.142317,222.150192 461.804646,223.159978 463.440686,226.041651 C464.2788,227.517881 464.452358,229.280051 463.918347,230.891424 L460.147627,242.269519 C459.10521,245.414997 460.810078,248.809956 463.955556,249.852373 C465.181092,250.258517 466.504946,250.258517 467.730481,249.852373 L479.108576,246.081653 C482.254054,245.039237 485.649013,246.744105 486.69143,249.889583 C487.225441,251.500956 487.051883,253.263126 486.213769,254.739356 L480.295746,265.163193 C478.659707,268.044866 479.669493,271.707196 482.551166,273.343235 C483.673918,273.980665 484.972335,274.238936 486.253556,274.079686 L498.148655,272.601176 C501.437059,272.192441 504.434182,274.526875 504.842917,277.815278 C505.052304,279.49987 504.538298,281.194321 503.42829,282.478678 L495.590391,291.547675 C493.423601,294.054802 493.699499,297.84376 496.206626,300.01055 C497.183449,300.85477 498.40653,301.361387 499.694202,301.455151 L511.649183,302.325669 C514.954141,302.566323 517.43825,305.440611 517.197595,308.745569 C517.074311,310.438641 516.239611,312.000256 514.900366,313.043382 L505.443796,320.409023 C502.829524,322.445257 502.360932,326.215236 504.397166,328.829508 C505.190519,329.848076 506.291264,330.583569 507.535901,330.926744 L519.09134,334.112836 C522.285845,334.993632 524.161477,338.297316 523.280681,341.491821 C522.829464,343.12831 521.706147,344.497076 520.189131,345.258886 L509.477301,350.638113 C506.516013,352.125201 505.320938,355.731324 506.808026,358.692613 C507.387423,359.846385 508.323529,360.782491 509.477301,361.361887 L520.189131,366.741114 C523.150419,368.228203 524.345494,371.834326 522.858405,374.795614 C522.096596,376.31263 520.727829,377.435948 519.09134,377.887164 L507.535901,381.073256 C504.341396,381.954053 502.465764,385.257737 503.34656,388.452242 C503.689735,389.696879 504.425228,390.797623 505.443796,391.590977 L514.900366,398.956618 C517.514637,400.992851 517.98323,404.762831 515.946996,407.377102 C514.903869,408.716348 513.342255,409.551048 511.649183,409.674331 L499.694202,410.544849 C496.389244,410.785504 493.905135,413.659792 494.14579,416.96475 C494.239553,418.252422 494.74617,419.475503 495.590391,420.452325 L503.42829,429.521322 C505.59508,432.028449 505.319182,435.817408 502.812054,437.984197 C501.527697,439.094206 499.833247,439.608212 498.148655,439.398824 L486.253556,437.920314 C482.965153,437.511579 479.96803,439.846013 479.559295,443.134417 C479.400045,444.415638 479.658316,445.714055 480.295746,446.836807 L486.213769,457.260644 C487.849808,460.142317 486.840022,463.804646 483.958349,465.440686 C482.482119,466.2788 480.719949,466.452358 479.108576,465.918347 L467.730481,462.147627 C464.585003,461.10521 461.190044,462.810078 460.147627,465.955556 C459.741483,467.181092 459.741483,468.504946 460.147627,469.730481 L463.918347,481.108576 C464.960763,484.254054 463.255895,487.649013 460.110417,488.69143 C458.499044,489.225441 456.736874,489.051883 455.260644,488.213769 L444.836807,482.295746 C441.955134,480.659707 438.292804,481.669493 436.656765,484.551166 C436.019335,485.673918 435.761064,486.972335 435.920314,488.253556 L437.398824,500.148655 C437.807559,503.437059 435.473125,506.434182 432.184722,506.842917 C430.50013,507.052304 428.805679,506.538298 427.521322,505.42829 L418.452325,497.590391 C415.945198,495.423601 412.15624,495.699499 409.98945,498.206626 C409.14523,499.183449 408.638613,500.40653 408.544849,501.694202 L407.674331,513.649183 C407.433677,516.954141 404.559389,519.43825 401.254431,519.197595 C399.561359,519.074311 397.999744,518.239611 396.956618,516.900366 L389.590977,507.443796 C387.554743,504.829524 383.784764,504.360932 381.170492,506.397166 C380.151924,507.190519 379.416431,508.291264 379.073256,509.535901 L375.887164,521.09134 C375.006368,524.285845 371.702684,526.161477 368.508179,525.280681 C366.87169,524.829464 365.502924,523.706147 364.741114,522.189131 L359.361887,511.477301 C357.874799,508.516013 354.268676,507.320938 351.307387,508.808026 C350.153615,509.387423 349.217509,510.323529 348.638113,511.477301 Z" id="星形-copy" stroke="#FF5ABA" stroke-width="4"></path>
            <g transform="translate(228.000000, 217.000000)">
                <path d="M244.614551,117.664347 C244.614551,52.6826813 191.496638,0 125.978132,0 C60.4555346,0 7.3376209,52.6826813 7.3376209,117.664347 C7.3376209,134.631264 10.9677611,150.753893 17.4790948,165.321899 C6.87106399,171.666227 0,183.038558 0,196.226479 C0,216.257994 16.3663254,232.494278 36.5592359,232.494278 C42.0569679,232.494278 48.4478602,232.494278 55.7319128,232.494278 L55.7319128,254.796536 C55.7319128,260.80396 63.2221352,265.670786 69.2750973,265.670786 L84.6223641,265.670786 C86.1202573,265.670786 87.5485763,265.374474 88.8459319,264.830559 C89.6808232,270.022111 94.194966,274 99.6626856,274 L115.014045,274 C121.067007,274 125.978132,269.125056 125.978132,263.125749 C125.978132,269.125056 130.885165,274 136.938127,274 L152.289487,274 C157.753114,274 162.275442,270.022111 163.10624,264.830559 C164.399503,265.374474 165.836008,265.670786 167.333901,265.670786 L182.681168,265.670786 C188.73413,265.670786 196.224352,260.80396 196.224352,254.796536 L196.224352,232.494278 C202.771736,232.494278 208.507811,232.494278 213.432579,232.494278 C233.625489,232.494278 250,216.257994 250,196.226479 C250,183.68395 243.800123,172.794649 234.039261,166.283899 C240.828892,151.464231 244.614551,135.004698 244.614551,117.664347 Z" id="Fill-2" fill="#00D5A8"></path>
                <polygon id="矩形" fill="#6C1D79" points="123 239 128 239 128 278 123 278"></polygon>
                <polygon id="矩形-copy" fill="#6C1D79" points="84 230 89 230 89 273 84 273"></polygon>
                <polygon id="矩形-copy-2" fill="#6C1D79" points="163 230 168 230 168 273 163 273"></polygon>
                <path d="M74.9523046,63 C98.6737725,63 117.909091,82.2556732 117.909091,106.002243 C117.909091,129.7533 98.6737725,149 74.9523046,149 C51.2308367,149 32,129.7533 32,106.002243 C32,82.2556732 51.2308367,63 74.9523046,63 Z M178.043214,63 C201.764682,63 221,82.2556732 221,106.002243 C221,129.7533 201.764682,149 178.043214,149 C154.321746,149 135.090909,129.7533 135.090909,106.002243 C135.090909,82.2556732 154.321746,63 178.043214,63 Z" id="合并形状" fill="url(#radialGradient-1)"></path>
                <path d="M144,173.477688 C144,184.230893 136.166504,181.75351 126.492697,181.75351 C116.833496,181.75351 109,184.230893 109,173.477688 C109,162.719606 116.833496,154 126.492697,154 C136.166504,154 144,162.719606 144,173.477688" id="Fill-8" fill="#522C58"></path>
                <g id="路径-2" stroke-linecap="round">
                    <use fill="black" fill-opacity="1" filter="url(#filter-4)" xlink:href="#path-3"></use>
                    <use stroke="url(#linearGradient-2)" stroke-width="22" xlink:href="#path-3"></use>
                </g>
            </g>
        </g>
    </g>
</svg>